<svg width="44" height="44" viewBox="0 0 44 44" fill="none" xmlns="http://www.w3.org/2000/svg">
<rect x="4" y="4" width="36" height="36" rx="18" fill="#DEEBEF"/>
<rect x="4" y="4" width="36" height="36" rx="18" stroke="#F2F8F9" stroke-width="6"/>
<path d="M17.5 21H14.6C14.0399 21 13.7599 21 13.546 21.109C13.3578 21.2049 13.2049 21.3578 13.109 21.546C13 21.7599 13 22.0399 13 22.6V31M26.5 21H29.4C29.9601 21 30.2401 21 30.454 21.109C30.6422 21.2049 30.7951 21.3578 30.891 21.546C31 21.7599 31 22.0399 31 22.6V31M26.5 31V16.2C26.5 15.0799 26.5 14.5198 26.282 14.092C26.0903 13.7157 25.7843 13.4097 25.408 13.218C24.9802 13 24.4201 13 23.3 13H20.7C19.5799 13 19.0198 13 18.592 13.218C18.2157 13.4097 17.9097 13.7157 17.718 14.092C17.5 14.5198 17.5 15.0799 17.5 16.2V31M32 31H12M21 17H23M21 21H23M21 25H23" stroke="#487E92" stroke-width="2" stroke-linecap="round" stroke-linejoin="round"/>
</svg>
