<svg width="42" height="42" viewBox="0 0 42 42" fill="none" xmlns="http://www.w3.org/2000/svg">
<rect x="3" y="3" width="36" height="36" rx="18" fill="#DEEBEF"/>
<rect x="3" y="3" width="36" height="36" rx="18" stroke="#F2F8F9" stroke-width="6"/>
<path d="M29 30C29 28.6044 29 27.9067 28.8278 27.3389C28.44 26.0605 27.4395 25.06 26.1611 24.6722C25.5933 24.5 24.8956 24.5 23.5 24.5H18.5C17.1044 24.5 16.4067 24.5 15.8389 24.6722C14.5605 25.06 13.56 26.0605 13.1722 27.3389C13 27.9067 13 28.6044 13 30M25.5 16.5C25.5 18.9853 23.4853 21 21 21C18.5147 21 16.5 18.9853 16.5 16.5C16.5 14.0147 18.5147 12 21 12C23.4853 12 25.5 14.0147 25.5 16.5Z" stroke="#487E92" stroke-width="2" stroke-linecap="round" stroke-linejoin="round"/>
</svg>
